<svg width="157" height="174" viewBox="0 0 157 174" fill="none" xmlns="http://www.w3.org/2000/svg">
<g clip-path="url(#clip0_10_2)">
<path d="M18.9357 134.073H21.1065V145.943C21.1065 147.168 20.8177 148.262 20.2399 149.225C19.668 150.182 18.8598 150.938 17.8152 151.492C16.7706 152.041 15.5451 152.315 14.1387 152.315C12.7323 152.315 11.5068 152.041 10.4622 151.492C9.41763 150.938 8.60646 150.182 8.02873 149.225C7.45683 148.262 7.17088 147.168 7.17088 145.943V134.073H9.34176V145.767C9.34176 146.643 9.53434 147.422 9.9195 148.105C10.3047 148.782 10.8532 149.316 11.5652 149.707C12.283 150.092 13.1408 150.284 14.1387 150.284C15.1366 150.284 15.9945 150.092 16.7123 149.707C17.43 149.316 17.9786 148.782 18.3579 148.105C18.7431 147.422 18.9357 146.643 18.9357 145.767V134.073ZM39.6575 134.073V152H37.5566L27.7877 137.924H27.6126V152H25.4417V134.073H27.5426L37.3466 148.183H37.5216V134.073H39.6575ZM46.1723 134.073V152H44.0014V134.073H46.1723ZM51.2603 134.073L56.5825 149.164H56.7926L62.1147 134.073H64.3907L57.808 152H55.5671L48.9844 134.073H51.2603ZM67.183 152V134.073H78.0024V135.999H69.3539V142.056H77.4422V143.982H69.3539V150.074H78.1425V152H67.183ZM81.9153 152V134.073H87.9727C89.3733 134.073 90.5229 134.312 91.4216 134.791C92.3203 135.263 92.9856 135.914 93.4174 136.743C93.8493 137.571 94.0652 138.514 94.0652 139.57C94.0652 140.626 93.8493 141.563 93.4174 142.38C92.9856 143.197 92.3232 143.839 91.4304 144.306C90.5375 144.767 89.3966 144.997 88.0077 144.997H83.1057V143.036H87.9377C88.8948 143.036 89.6651 142.896 90.2486 142.616C90.8381 142.336 91.2641 141.939 91.5267 141.426C91.7951 140.906 91.9293 140.288 91.9293 139.57C91.9293 138.852 91.7951 138.225 91.5267 137.688C91.2582 137.151 90.8293 136.737 90.2399 136.445C89.6505 136.147 88.8714 135.999 87.9027 135.999H84.0861V152H81.9153ZM90.3537 143.947L94.7655 152H92.2445L87.9027 143.947H90.3537ZM107.487 138.555C107.382 137.668 106.956 136.979 106.209 136.489C105.462 135.999 104.545 135.753 103.46 135.753C102.666 135.753 101.972 135.882 101.377 136.139C100.787 136.395 100.326 136.748 99.9935 137.198C99.6667 137.647 99.5033 138.158 99.5033 138.73C99.5033 139.208 99.6171 139.62 99.8447 139.964C100.078 140.302 100.376 140.585 100.738 140.813C101.099 141.035 101.479 141.219 101.876 141.364C102.272 141.504 102.637 141.618 102.97 141.706L104.79 142.196C105.257 142.319 105.777 142.488 106.349 142.704C106.926 142.92 107.478 143.214 108.003 143.588C108.534 143.955 108.972 144.428 109.316 145.006C109.66 145.584 109.833 146.293 109.833 147.133C109.833 148.102 109.579 148.977 109.071 149.759C108.569 150.541 107.834 151.163 106.865 151.624C105.902 152.085 104.732 152.315 103.355 152.315C102.071 152.315 100.959 152.108 100.02 151.694C99.0861 151.279 98.3508 150.702 97.8139 149.96C97.2829 149.219 96.9823 148.359 96.9123 147.378H99.1532C99.2116 148.055 99.4391 148.615 99.836 149.059C100.239 149.496 100.746 149.823 101.359 150.039C101.978 150.249 102.643 150.354 103.355 150.354C104.184 150.354 104.928 150.22 105.587 149.952C106.246 149.677 106.769 149.298 107.154 148.814C107.539 148.324 107.732 147.752 107.732 147.098C107.732 146.503 107.565 146.018 107.233 145.645C106.9 145.271 106.462 144.968 105.92 144.735C105.377 144.501 104.79 144.297 104.16 144.122L101.954 143.492C100.554 143.089 99.445 142.514 98.628 141.767C97.811 141.02 97.4025 140.043 97.4025 138.835C97.4025 137.831 97.6738 136.956 98.2166 136.209C98.7651 135.456 99.5004 134.872 100.422 134.458C101.35 134.038 102.386 133.828 103.53 133.828C104.685 133.828 105.713 134.035 106.611 134.449C107.51 134.858 108.222 135.418 108.747 136.13C109.278 136.842 109.558 137.65 109.587 138.555H107.487ZM115.573 134.073V152H113.402V134.073H115.573ZM118.945 135.999V134.073H132.39V135.999H126.753V152H124.582V135.999H118.945ZM134.2 134.073H136.686L141.658 142.441H141.868L146.84 134.073H149.326L142.849 144.612V152H140.678V144.612L134.2 134.073Z" fill="black"/>
<path d="M28.3162 165.726C28.0217 165.726 27.769 165.62 27.558 165.409C27.3471 165.199 27.2416 164.946 27.2416 164.651C27.2416 164.357 27.3471 164.104 27.558 163.893C27.769 163.682 28.0217 163.577 28.3162 163.577C28.6106 163.577 28.8634 163.682 29.0743 163.893C29.2852 164.104 29.3907 164.357 29.3907 164.651C29.3907 164.846 29.3409 165.025 29.2414 165.189C29.1459 165.352 29.0166 165.483 28.8534 165.583C28.6942 165.678 28.5151 165.726 28.3162 165.726ZM41.8041 157.775V170H40.3715L33.7096 160.401H33.5902V170H32.1097V157.775H33.5424L40.2282 167.397H40.3476V157.775H41.8041ZM45.2679 170H43.7159L48.2049 157.775H49.7331L54.2221 170H52.6701L49.0167 159.709H48.9212L45.2679 170ZM45.841 165.224H52.097V166.538H45.841V165.224ZM56.1264 157.775H57.8933L62.0481 167.923H62.1913L66.3461 157.775H68.113V170H66.7281V160.712H66.6087L62.7883 170H61.4511L57.6307 160.712H57.5113V170H56.1264V157.775ZM71.0814 170V157.775H78.4596V159.088H72.5618V163.219H78.0776V164.532H72.5618V168.687H78.5551V170H71.0814ZM85.8558 170V157.775H87.3362V163.219H93.8549V157.775H95.3353V170H93.8549V164.532H87.3362V170H85.8558ZM98.2991 170V157.775H105.677V159.088H99.7795V163.219H105.295V164.532H99.7795V168.687H105.773V170H98.2991ZM108.346 170V157.775H112.477C113.432 157.775 114.216 157.938 114.829 158.264C115.441 158.586 115.895 159.03 116.19 159.595C116.484 160.16 116.631 160.803 116.631 161.523C116.631 162.244 116.484 162.882 116.19 163.44C115.895 163.997 115.443 164.434 114.835 164.753C114.226 165.067 113.448 165.224 112.5 165.224H109.158V163.887H112.453C113.105 163.887 113.631 163.792 114.029 163.601C114.431 163.41 114.721 163.139 114.9 162.789C115.083 162.435 115.175 162.013 115.175 161.523C115.175 161.034 115.083 160.606 114.9 160.24C114.717 159.874 114.425 159.591 114.023 159.392C113.621 159.189 113.089 159.088 112.429 159.088H109.826V170H108.346ZM114.1 164.508L117.109 170H115.39L112.429 164.508H114.1ZM119.098 170V157.775H126.476V159.088H120.579V163.219H126.094V164.532H120.579V168.687H126.572V170H119.098ZM129.981 165.726C129.686 165.726 129.433 165.62 129.222 165.409C129.011 165.199 128.906 164.946 128.906 164.651C128.906 164.357 129.011 164.104 129.222 163.893C129.433 163.682 129.686 163.577 129.981 163.577C130.275 163.577 130.528 163.682 130.739 163.893C130.95 164.104 131.055 164.357 131.055 164.651C131.055 164.846 131.005 165.025 130.906 165.189C130.81 165.352 130.681 165.483 130.518 165.583C130.359 165.678 130.18 165.726 129.981 165.726Z" fill="black"/>
<path d="M83.3233 76.0822H88.7889L86.3276 68.1914H69.4601L66.9988 76.0822H72.7902V86H51.9773V76.0822H56.0675L71.0165 31.1264H85.5313L100.155 76.0822H104.136V86H83.3233V76.0822ZM72.3196 58.9252H83.3957L77.8214 41.0804L72.3196 58.9252Z" fill="black"/>
<path d="M66.3966 94.5112C66.2368 94.5112 66.0997 94.4539 65.9853 94.3395C65.8709 94.2251 65.8137 94.088 65.8137 93.9282C65.8137 93.7684 65.8709 93.6313 65.9853 93.5169C66.0997 93.4025 66.2368 93.3452 66.3966 93.3452C66.5564 93.3452 66.6935 93.4025 66.8079 93.5169C66.9223 93.6313 66.9796 93.7684 66.9796 93.9282C66.9796 94.034 66.9526 94.1312 66.8986 94.2197C66.8468 94.3082 66.7766 94.3794 66.6881 94.4334C66.6017 94.4852 66.5046 94.5112 66.3966 94.5112ZM70.67 90.1973V96.83H69.8668V91.0393H69.8279L68.2086 92.1146V91.2984L69.8668 90.1973H70.67ZM74.6891 90.1066C74.9612 90.1088 75.2332 90.1606 75.5053 90.2621C75.7773 90.3635 76.0256 90.5319 76.2502 90.7673C76.4747 91.0005 76.655 91.3189 76.791 91.7227C76.927 92.1264 76.995 92.6327 76.995 93.2416C76.995 93.831 76.9389 94.3546 76.8266 94.8123C76.7165 95.2679 76.5567 95.6522 76.3473 95.9653C76.14 96.2784 75.8874 96.5159 75.5895 96.6778C75.2937 96.8397 74.959 96.9207 74.5855 96.9207C74.2141 96.9207 73.8827 96.8473 73.5912 96.7005C73.3019 96.5515 73.0644 96.3453 72.8787 96.0819C72.6952 95.8163 72.5775 95.5087 72.5257 95.1589H73.316C73.3872 95.4633 73.5286 95.7148 73.7402 95.9135C73.954 96.11 74.2357 96.2082 74.5855 96.2082C75.0972 96.2082 75.501 95.9847 75.7967 95.5378C76.0947 95.0909 76.2437 94.4593 76.2437 93.6432H76.1919C76.071 93.8246 75.9274 93.9811 75.7611 94.1128C75.5949 94.2445 75.4103 94.346 75.2073 94.4172C75.0044 94.4885 74.7885 94.5241 74.5596 94.5241C74.1796 94.5241 73.8309 94.4302 73.5135 94.2423C73.1983 94.0523 72.9457 93.7922 72.7557 93.4618C72.5678 93.1293 72.4739 92.7493 72.4739 92.3218C72.4739 91.9159 72.5646 91.5446 72.746 91.2077C72.9295 90.8688 73.1864 90.5989 73.5167 90.3981C73.8492 90.1973 74.24 90.1001 74.6891 90.1066ZM74.6891 90.8191C74.4171 90.8191 74.172 90.8871 73.954 91.0231C73.7381 91.157 73.5664 91.3384 73.439 91.5672C73.3138 91.7939 73.2512 92.0455 73.2512 92.3218C73.2512 92.5982 73.3116 92.8497 73.4325 93.0764C73.5556 93.301 73.7229 93.4802 73.9345 93.6141C74.1483 93.7458 74.3912 93.8116 74.6632 93.8116C74.8683 93.8116 75.0594 93.7717 75.2365 93.6918C75.4135 93.6097 75.5679 93.4985 75.6996 93.3582C75.8335 93.2157 75.9382 93.0548 76.0137 92.8756C76.0893 92.6943 76.1271 92.5054 76.1271 92.3089C76.1271 92.0498 76.0645 91.8069 75.9392 91.5802C75.8162 91.3535 75.6456 91.17 75.4275 91.0296C75.2116 90.8893 74.9655 90.8191 74.6891 90.8191ZM80.3932 96.9207C79.9484 96.9207 79.5555 96.8419 79.2143 96.6843C78.8753 96.5245 78.6109 96.3054 78.4209 96.0268C78.2309 95.7462 78.1369 95.4266 78.1391 95.0682C78.1369 94.7875 78.192 94.5284 78.3043 94.2909C78.4165 94.0513 78.5698 93.8516 78.7641 93.6918C78.9606 93.5298 79.1798 93.4273 79.4216 93.3841V93.3452C79.1042 93.2632 78.8516 93.0851 78.6638 92.8109C78.4759 92.5345 78.3831 92.2204 78.3852 91.8684C78.3831 91.5316 78.4684 91.2304 78.6411 90.9648C78.8138 90.6993 79.0513 90.4898 79.3536 90.3366C79.658 90.1833 80.0045 90.1066 80.3932 90.1066C80.7775 90.1066 81.1208 90.1833 81.4231 90.3366C81.7253 90.4898 81.9628 90.6993 82.1356 90.9648C82.3105 91.2304 82.399 91.5316 82.4011 91.8684C82.399 92.2204 82.3029 92.5345 82.1129 92.8109C81.9251 93.0851 81.6757 93.2632 81.3648 93.3452V93.3841C81.6044 93.4273 81.8203 93.5298 82.0125 93.6918C82.2047 93.8516 82.358 94.0513 82.4724 94.2909C82.5868 94.5284 82.6451 94.7875 82.6473 95.0682C82.6451 95.4266 82.548 95.7462 82.3558 96.0268C82.1658 96.3054 81.9013 96.5245 81.5623 96.6843C81.2255 96.8419 80.8358 96.9207 80.3932 96.9207ZM80.3932 96.2082C80.6933 96.2082 80.9524 96.1596 81.1705 96.0625C81.3885 95.9653 81.5569 95.8282 81.6757 95.6512C81.7944 95.4741 81.8549 95.2668 81.857 95.0293C81.8549 94.7789 81.7901 94.5576 81.6627 94.3654C81.5353 94.1733 81.3615 94.0221 81.1413 93.912C80.9232 93.8019 80.6739 93.7468 80.3932 93.7468C80.1103 93.7468 79.8577 93.8019 79.6353 93.912C79.4151 94.0221 79.2413 94.1733 79.1139 94.3654C78.9887 94.5576 78.9272 94.7789 78.9293 95.0293C78.9272 95.2668 78.9844 95.4741 79.101 95.6512C79.2197 95.8282 79.3892 95.9653 79.6094 96.0625C79.8297 96.1596 80.0909 96.2082 80.3932 96.2082ZM80.3932 93.0602C80.6307 93.0602 80.8412 93.0127 81.0247 92.9177C81.2104 92.8227 81.3561 92.69 81.4619 92.5194C81.5677 92.3488 81.6217 92.1491 81.6239 91.9202C81.6217 91.6957 81.5688 91.5003 81.4652 91.3341C81.3615 91.1656 81.218 91.0361 81.0344 90.9454C80.8509 90.8526 80.6372 90.8062 80.3932 90.8062C80.1449 90.8062 79.9279 90.8526 79.7422 90.9454C79.5565 91.0361 79.413 91.1656 79.3115 91.3341C79.21 91.5003 79.1603 91.6957 79.1625 91.9202C79.1603 92.1491 79.2111 92.3488 79.3147 92.5194C79.4205 92.69 79.5663 92.8227 79.7519 92.9177C79.9376 93.0127 80.1514 93.0602 80.3932 93.0602ZM85.9612 96.9207C85.5812 96.9207 85.239 96.8451 84.9346 96.694C84.6301 96.5429 84.3862 96.3356 84.2026 96.0722C84.0191 95.8088 83.9187 95.5087 83.9014 95.1718H84.6787C84.7089 95.4719 84.845 95.7202 85.0868 95.9167C85.3308 96.111 85.6222 96.2082 85.9612 96.2082C86.2333 96.2082 86.4751 96.1445 86.6867 96.0171C86.9004 95.8897 87.0677 95.7148 87.1887 95.4925C87.3117 95.2679 87.3733 95.0142 87.3733 94.7314C87.3733 94.4421 87.3096 94.1841 87.1822 93.9573C87.0569 93.7285 86.8842 93.5482 86.664 93.4165C86.4438 93.2848 86.1922 93.2179 85.9094 93.2157C85.7064 93.2135 85.4981 93.2448 85.2843 93.3096C85.0706 93.3722 84.8946 93.4532 84.7564 93.5525L84.0051 93.4618L84.4067 90.1973H87.8526V90.9098H85.0803L84.8471 92.8659H84.886C85.022 92.758 85.1926 92.6684 85.3977 92.5971C85.6028 92.5259 85.8165 92.4902 86.0389 92.4902C86.4448 92.4902 86.8065 92.5874 87.1239 92.7817C87.4434 92.9739 87.6939 93.2373 87.8752 93.5719C88.0588 93.9066 88.1505 94.2888 88.1505 94.7184C88.1505 95.1416 88.0555 95.5194 87.8655 95.8519C87.6777 96.1823 87.4186 96.4435 87.0883 96.6357C86.7579 96.8257 86.3822 96.9207 85.9612 96.9207ZM90.0071 94.5112C89.8473 94.5112 89.7102 94.4539 89.5958 94.3395C89.4813 94.2251 89.4241 94.088 89.4241 93.9282C89.4241 93.7684 89.4813 93.6313 89.5958 93.5169C89.7102 93.4025 89.8473 93.3452 90.0071 93.3452C90.1668 93.3452 90.3039 93.4025 90.4184 93.5169C90.5328 93.6313 90.59 93.7684 90.59 93.9282C90.59 94.034 90.563 94.1312 90.5091 94.2197C90.4572 94.3082 90.3871 94.3794 90.2986 94.4334C90.2122 94.4852 90.115 94.5112 90.0071 94.5112Z" fill="black"/>
<path d="M78.11 108.33C105.85 95.94 116.76 74.16 116.76 74.16V28.99C116.76 28.99 94.5 27.61 78.11 9.42999C61.71 27.66 39.45 29.04 39.45 29.04V74.21C39.45 74.21 50.36 95.94 78.11 108.33Z" stroke="black" stroke-miterlimit="10"/>
<path d="M123.01 23.13L117.17 22.73C116.97 22.73 97.17 21.17 82.77 5.19L78.11 0L73.44 5.19C59.07 21.19 39.24 22.71 39.06 22.73L33.18 23.09V75.64L33.84 76.97C34.33 77.97 46.1 100.91 75.55 114.06L78.11 115.2L80.66 114.05C110.11 100.91 121.88 77.94 122.37 76.97L123.03 75.64V28.99L123.01 23.13ZM119.61 74.83L119.31 75.43C118.85 76.36 107.61 98.28 79.31 110.93L78.15 111.45L76.96 110.93C48.62 98.28 37.38 76.36 36.96 75.43L36.66 74.83V26.31L39.33 26.14C39.54 26.14 60.68 24.56 76.05 7.47L78.17 5.11L80.23 7.43C95.66 24.6 116.73 26.09 116.94 26.1L119.61 26.27V74.83Z" fill="black"/>
<path d="M31.39 112.28C34.6592 115.546 38.9681 117.566 43.57 117.99C45.3491 118.163 47.1429 117.878 48.78 117.16C49.3351 116.927 49.8338 116.579 50.2427 116.137C50.6515 115.695 50.9609 115.171 51.15 114.6C47.593 112.57 43.7019 111.191 39.66 110.53C38.7053 110.365 37.7388 110.278 36.77 110.27C35.9761 110.236 35.1809 110.293 34.4 110.44C33.7949 110.51 33.2122 110.711 32.6925 111.029C32.1727 111.346 31.7283 111.773 31.39 112.28Z" fill="black"/>
<path d="M22.96 100.52C23.4454 101.315 24.0009 102.064 24.62 102.76C25.2849 103.47 25.9929 104.138 26.74 104.76C27.5169 105.382 28.3429 105.941 29.21 106.43C30.0268 106.9 30.8961 107.273 31.8 107.54C32.5866 107.792 33.3979 107.96 34.22 108.04C34.8895 108.091 35.5628 108.047 36.22 107.91C36.7201 107.83 37.1974 107.644 37.6199 107.364C38.0424 107.085 38.4004 106.719 38.67 106.29C38.0861 105.724 37.4719 105.19 36.83 104.69C36.1661 104.143 35.468 103.638 34.74 103.18C33.2649 102.202 31.7014 101.365 30.07 100.68C29.3209 100.37 28.5485 100.119 27.76 99.93C27.1063 99.7557 26.4358 99.6518 25.76 99.62C25.2561 99.5619 24.7456 99.6121 24.2627 99.7673C23.7798 99.9225 23.3357 100.179 22.96 100.52Z" fill="black"/>
<path d="M18.24 88.79C18.7439 90.1885 19.4884 91.4881 20.44 92.63C20.9107 93.2153 21.4184 93.7697 21.96 94.29C22.5278 94.7783 23.1367 95.2166 23.78 95.6C26.24 97.11 28.37 96.96 29.35 95.93C27.8832 93.5918 25.9619 91.5719 23.7 89.99C21.44 88.43 19.44 87.94 18.24 88.79Z" fill="black"/>
<path d="M17.33 80.34C17.5446 81.2884 17.9092 82.1965 18.41 83.03C18.9281 83.882 19.5721 84.6506 20.32 85.31C21.76 86.57 23.21 86.76 23.99 86.21C23.8382 85.7931 23.6544 85.3885 23.44 85C23.2386 84.5798 23.0115 84.1724 22.76 83.78C22.2334 82.9787 21.6048 82.2492 20.89 81.61C19.55 80.32 18.2 79.88 17.33 80.34Z" fill="black"/>
<path d="M43.96 98.43C46.6789 100.662 48.8913 103.447 50.45 106.6C52.11 109.93 52.45 112.87 51.14 114.6C47.454 112.95 44.5284 109.967 42.95 106.25C42.6281 105.421 42.3968 104.559 42.26 103.68C42.1585 102.943 42.1585 102.197 42.26 101.46C42.4178 100.27 43.0263 99.1851 43.96 98.43Z" fill="black"/>
<path d="M35.96 91.43C37.7854 93.8108 39.0779 96.5561 39.75 99.48C39.9232 100.199 40.0336 100.932 40.08 101.67C40.1463 102.292 40.1463 102.918 40.08 103.54C40.0009 104.553 39.5268 105.494 38.76 106.16C38.1118 105.68 37.5092 105.141 36.96 104.55C36.4089 103.901 35.9012 103.216 35.44 102.5C34.5502 101.041 33.9588 99.4194 33.7 97.73C33.583 96.9894 33.5528 96.2376 33.61 95.49C33.6698 94.8613 33.8214 94.2447 34.06 93.66C34.3885 92.7031 35.0675 91.9063 35.96 91.43Z" fill="black"/>
<path d="M29.86 83.74C30.3817 84.8114 30.7905 85.9341 31.08 87.09C31.2254 87.7124 31.3289 88.3438 31.39 88.98C31.4784 89.6094 31.5218 90.2444 31.52 90.88C31.52 93.46 30.79 95.3 29.44 95.88C27.7581 93.7266 26.9095 91.0388 27.05 88.31C27.23 85.67 28.47 84.07 29.86 83.74Z" fill="black"/>
<path d="M25.62 77.91C25.8978 78.7147 26.0725 79.5514 26.14 80.4C26.2448 81.2894 26.2145 82.1896 26.05 83.07C25.72 84.85 25.05 85.97 24.05 86.19C23.8469 85.7966 23.6731 85.3889 23.53 84.97C23.4098 84.5192 23.3163 84.0618 23.25 83.6C23.105 82.6756 23.105 81.7343 23.25 80.81C23.72 79.01 24.64 78.01 25.62 77.91Z" fill="black"/>
<path d="M19.27 68.7C18.5953 70.4548 18.4732 72.3739 18.92 74.2C19.1544 75.2368 19.5067 76.2433 19.97 77.2C20.341 77.9225 20.8507 78.5647 21.47 79.09C21.6966 78.3281 21.7979 77.5344 21.77 76.74C21.7825 75.7066 21.6683 74.6756 21.43 73.67C21.1651 71.8506 20.4194 70.1349 19.27 68.7Z" fill="black"/>
<path d="M21.48 79.1C22.5332 84.0184 24.3485 88.742 26.86 93.1C30.3981 99.3242 35.1605 104.767 40.86 109.1C46.5515 113.413 52.9268 116.739 59.72 118.94C64.4734 120.555 69.4197 121.534 74.43 121.85C69.5519 120.912 64.7665 119.543 60.13 117.76C53.6075 115.32 47.4711 111.952 41.91 107.76C36.3831 103.523 31.6587 98.3309 27.96 92.43C25.3116 88.2411 23.1382 83.7702 21.48 79.1Z" fill="black"/>
<path d="M112.96 98.43C110.243 100.668 108.031 103.456 106.47 106.61C104.81 109.94 104.47 112.88 105.78 114.61C109.466 112.96 112.392 109.977 113.97 106.26C114.296 105.432 114.528 104.57 114.66 103.69C114.761 102.953 114.761 102.207 114.66 101.47C114.5 100.278 113.892 99.1909 112.96 98.43Z" fill="black"/>
<path d="M121.04 91.43C119.215 93.8108 117.922 96.5561 117.25 99.48C117.077 100.199 116.966 100.932 116.92 101.67C116.854 102.292 116.854 102.918 116.92 103.54C117.004 104.551 117.477 105.49 118.24 106.16C118.887 105.667 119.486 105.114 120.03 104.51C120.581 103.861 121.089 103.176 121.55 102.46C122.444 101.003 123.036 99.3806 123.29 97.69C123.407 96.9494 123.437 96.1976 123.38 95.45C123.322 94.8211 123.17 94.2043 122.93 93.62C122.595 92.6798 121.921 91.8986 121.04 91.43Z" fill="black"/>
<path d="M127.13 83.74C126.607 84.8099 126.202 85.9331 125.92 87.09C125.766 87.7112 125.659 88.3429 125.6 88.98C125.516 89.6099 125.473 90.2445 125.47 90.88C125.53 93.46 126.2 95.3 127.56 95.88C129.233 93.7291 130.084 91.0521 129.96 88.33C129.76 85.67 128.52 84.07 127.13 83.74Z" fill="black"/>
<path d="M131.37 77.91C131.097 78.716 130.922 79.5521 130.85 80.4C130.745 81.2894 130.776 82.1896 130.94 83.07C131.27 84.85 131.94 85.97 132.94 86.19C133.143 85.7966 133.317 85.3889 133.46 84.97C133.585 84.5203 133.679 84.0626 133.74 83.6C133.885 82.6756 133.885 81.7343 133.74 80.81C133.27 79.01 132.36 78.01 131.37 77.91Z" fill="black"/>
<path d="M125.6 112.28C122.335 115.546 118.029 117.563 113.43 117.98C111.648 118.161 109.85 117.879 108.21 117.16C107.657 116.926 107.16 116.578 106.752 116.139C106.343 115.699 106.033 115.178 105.84 114.61C109.394 112.572 113.286 111.19 117.33 110.53C118.285 110.365 119.251 110.278 120.22 110.27C121.017 110.236 121.816 110.293 122.6 110.44C123.203 110.511 123.784 110.713 124.302 111.031C124.82 111.348 125.263 111.775 125.6 112.28Z" fill="black"/>
<path d="M133.96 100.52C133.478 101.317 132.922 102.067 132.3 102.76C131.638 103.472 130.929 104.14 130.18 104.76C129.414 105.368 128.598 105.91 127.74 106.38C126.924 106.852 126.055 107.225 125.15 107.49C124.363 107.742 123.552 107.91 122.73 107.99C122.061 108.043 121.387 107.999 120.73 107.86C120.229 107.779 119.75 107.593 119.326 107.314C118.902 107.035 118.542 106.669 118.27 106.24C118.856 105.676 119.47 105.142 120.11 104.64C120.776 104.09 121.477 103.586 122.21 103.13C123.68 102.151 125.241 101.313 126.87 100.63C127.623 100.32 128.398 100.069 129.19 99.88C129.842 99.6993 130.514 99.5953 131.19 99.57C131.693 99.5229 132.2 99.5832 132.677 99.747C133.155 99.9108 133.592 100.174 133.96 100.52Z" fill="black"/>
<path d="M138.76 88.79C138.248 90.187 137.501 91.4859 136.55 92.63C136.066 93.2165 135.545 93.771 134.99 94.29C134.422 94.7783 133.813 95.2166 133.17 95.6C130.71 97.11 128.58 96.96 127.6 95.93C129.07 93.594 130.99 91.5746 133.25 89.99C135.55 88.43 137.55 87.93 138.76 88.79Z" fill="black"/>
<path d="M139.66 80.34C139.445 81.2866 139.084 82.1941 138.59 83.03C138.068 83.8823 137.421 84.651 136.67 85.31C135.23 86.57 133.79 86.76 133 86.21C133.152 85.7931 133.336 85.3885 133.55 85C133.755 84.5818 133.982 84.1746 134.23 83.78C134.757 82.9787 135.385 82.2492 136.1 81.61C137.44 80.32 138.79 79.88 139.66 80.34Z" fill="black"/>
<path d="M137.74 68.7C136.593 70.1479 135.848 71.8725 135.58 73.7C135.342 74.7057 135.228 75.7366 135.24 76.77C135.211 77.5645 135.312 78.3584 135.54 79.12C136.159 78.5947 136.669 77.9524 137.04 77.23C137.489 76.2724 137.825 75.2656 138.04 74.23C138.508 72.3994 138.403 70.4693 137.74 68.7Z" fill="black"/>
<path d="M135.54 79.1C133.887 83.7688 131.72 88.2395 129.08 92.43C125.363 98.3183 120.621 103.493 115.08 107.71C109.516 111.898 103.381 115.266 96.86 117.71C92.2217 119.498 87.4326 120.867 82.55 121.8C87.5634 121.483 92.513 120.504 97.27 118.89C104.063 116.689 110.438 113.363 116.13 109.05C121.826 104.714 126.588 99.2714 130.13 93.05C132.641 88.7061 134.465 84.0007 135.54 79.1Z" fill="black"/>
<path d="M78.1 16.8L79.78 20.21L83.55 20.75L80.83 23.41L81.47 27.16L78.1 25.39L74.73 27.16L75.38 23.41L72.65 20.75L76.42 20.21L78.1 16.8Z" fill="black"/>
<path d="M101.47 35.61L103.16 39.03L106.92 39.57L104.2 42.23L104.84 45.98L101.47 44.21L98.1 45.98L98.75 42.23L96.02 39.57L99.79 39.03L101.47 35.61Z" fill="black"/>
<path d="M54.73 35.61L56.41 39.03L60.18 39.57L57.45 42.23L58.1 45.98L54.73 44.21L51.36 45.98L52 42.23L49.28 39.57L53.04 39.03L54.73 35.61Z" fill="black"/>
</g>
<defs>
<clipPath id="clip0_10_2">
<rect width="156.98" height="173.66" fill="white"/>
</clipPath>
</defs>
</svg>
